<?xml version="1.0" encoding="UTF-8"?>
<svg width="256px" height="256px" viewBox="0 0 256 256" version="1.1" xmlns="http://www.w3.org/2000/svg" xmlns:xlink="http://www.w3.org/1999/xlink" preserveAspectRatio="xMidYMid">
    <g>
        <path d="M128,0 C198.692448,0 256,57.307552 256,128 C256,198.692448 198.692448,256 128,256 C57.307552,256 0,198.692448 0,128 C0,57.307552 57.307552,0 128,0 Z" fill="#000000"></path>
        <path d="M128,30.1764706 C74.1176471,30.1764706 30.1764706,74.1176471 30.1764706,128 C30.1764706,181.882353 74.1176471,225.823529 128,225.823529 C181.882353,225.823529 225.823529,181.882353 225.823529,128 C225.823529,74.1176471 181.882353,30.1764706 128,30.1764706 Z M98.4941176,65.0352941 C100.790588,65.0352941 102.4,66.6447059 102.4,68.9411765 C102.4,71.2376471 100.790588,72.8470588 98.4941176,72.8470588 C96.1976471,72.8470588 94.5882353,71.2376471 94.5882353,68.9411765 C94.5882353,66.6447059 96.1976471,65.0352941 98.4941176,65.0352941 Z M128,199.529412 C89.6,199.529412 58.3529412,168.282353 58.3529412,129.882353 C58.3529412,91.4823529 89.6,60.2352941 128,60.2352941 C166.4,60.2352941 197.647059,91.4823529 197.647059,129.882353 C197.647059,168.282353 166.4,199.529412 128,199.529412 Z" fill="#FFFFFF"></path>
        <path d="M128,76.8 C98.9176471,76.8 75.8117647,99.9058824 75.8117647,129.882353 C75.8117647,159.858824 98.9176471,182.964706 128,182.964706 C157.082353,182.964706 180.188235,159.858824 180.188235,129.882353 C180.188235,99.9058824 157.082353,76.8 128,76.8 Z M128,166.4 C108.423529,166.4 92.3764706,150.352941 92.3764706,130.776471 C92.3764706,111.2 108.423529,95.1529412 128,95.1529412 C147.576471,95.1529412 163.623529,111.2 163.623529,130.776471 C163.623529,150.352941 147.576471,166.4 128,166.4 Z" fill="#FFFFFF"></path>
        <circle fill="#FFFFFF" cx="128" cy="129.882353" r="17.8823529"></circle>
    </g>
</svg> 